<svg width="13" height="25" viewBox="0 0 13 25" fill="none" xmlns="http://www.w3.org/2000/svg">
<path d="M11.1875 10.4169H1.8125" stroke="#5051F9" stroke-miterlimit="10"/>
<path d="M1.8125 18.2294H11.1875" stroke="#5051F9" stroke-miterlimit="10"/>
<path d="M11.1874 18.2293C11.4637 18.2293 11.7286 18.3391 11.924 18.5344C12.1193 18.7298 12.2291 18.9947 12.2291 19.271V22.9168C12.2291 23.3312 12.0645 23.7287 11.7714 24.0217C11.4784 24.3147 11.081 24.4793 10.6666 24.4793H2.33325C1.91885 24.4793 1.52142 24.3147 1.2284 24.0217C0.935372 23.7287 0.770752 23.3312 0.770752 22.9168V19.271C0.770752 18.9947 0.880499 18.7298 1.07585 18.5344C1.2712 18.3391 1.53615 18.2293 1.81242 18.2293V10.4168C1.53615 10.4168 1.2712 10.3071 1.07585 10.1117C0.880499 9.91639 0.770752 9.65144 0.770752 9.37517V7.29184C0.770752 6.46304 1.09999 5.66818 1.68604 5.08213C2.27209 4.49608 3.06695 4.16684 3.89575 4.16684H9.10408C9.93289 4.16684 10.7277 4.49608 11.3138 5.08213C11.8998 5.66818 12.2291 6.46304 12.2291 7.29184V9.37517C12.2291 9.65144 12.1193 9.91639 11.924 10.1117C11.7286 10.3071 11.4637 10.4168 11.1874 10.4168V18.2293Z" stroke="#5051F9" stroke-miterlimit="10"/>
<path d="M9.10409 4.16689V1.56272C9.10409 1.28646 8.99434 1.0215 8.79899 0.826154C8.60364 0.630804 8.33869 0.521057 8.06242 0.521057H4.93742C4.66115 0.521057 4.3962 0.630804 4.20085 0.826154C4.0055 1.0215 3.89575 1.28646 3.89575 1.56272V4.16689" stroke="#5051F9" stroke-miterlimit="10"/>
</svg>
